<svg width="842" height="595" viewBox="0 0 842 595" fill="none" xmlns="http://www.w3.org/2000/svg">
<g clip-path="url(#clip0_3433_25796)">
<rect width="595" height="842" transform="translate(0 595) rotate(-90)" fill="white"/>
<path d="M841.988 391.97L841.988 0L810.991 -1.13311e-07L810.991 391.97L841.988 391.97Z" fill="#164520"/>
<path d="M811.004 67.1798L811.004 33.5898L780.006 33.5898L780.006 67.1798L811.004 67.1798Z" fill="#1F1F1F"/>
<path d="M748.998 67.1799L748.998 33.5898L718 33.5898L718 67.1799L748.998 67.1799Z" fill="#1F1F1F"/>
<path d="M811.475 34L811.475 0L697.001 -4.18456e-07L697.001 34L811.475 34Z" fill="#248043"/>
<path d="M779.994 33.59L779.994 0L748.996 -1.13311e-07L748.996 33.59L779.994 33.59Z" fill="#1F1F1F"/>
<path d="M811.002 167.969L842 167.969L842 134.379L811.002 134.379L811.002 167.969Z" fill="#1F1F1F"/>
<path d="M779.994 134.371L810.992 134.371L810.992 100.781L779.994 100.781L779.994 134.371Z" fill="#1F1F1F"/>
<path d="M811.002 100.781L842 100.781L842 67.1913L811.002 67.1913L811.002 100.781Z" fill="#1F1F1F"/>
<path d="M811.002 134.371L842 134.371L842 100.781L811.002 100.781L811.002 134.371Z" fill="#164520"/>
<path d="M779.994 528.082L779.994 561.672L810.992 561.672L810.992 528.082L779.994 528.082Z" fill="#1F1F1F"/>
<path d="M810.992 561.68L810.992 595.27L841.99 595.27L841.99 561.68L810.992 561.68Z" fill="#164520"/>
<path d="M748.99 561.672L748.99 595.262L779.988 595.262L779.988 561.672L748.99 561.672Z" fill="#248043"/>
<path d="M811.002 460.891L842 460.891L842 427.301L811.002 427.301L811.002 460.891Z" fill="#1F1F1F"/>
<path d="M779.994 494.488L810.992 494.488L810.992 460.898L779.994 460.898L779.994 494.488Z" fill="#1F1F1F"/>
<path d="M811.002 528.07L842 528.07L842 494.48L811.002 494.48L811.002 528.07Z" fill="#1F1F1F"/>
<path d="M811.002 494.488L842 494.488L842 460.898L811.002 460.898L811.002 494.488Z" fill="#164520"/>
<path d="M569 73.5898H602.59V39.9998H569V73.5898Z" fill="#164520"/>
<rect width="35" height="305" transform="translate(281 92) rotate(-90)" fill="#248043"/>
<path d="M341.852 77.812H345.276V80.5H338.3V69.172H341.852V77.812ZM345.914 75.988C345.914 75.0387 346.074 74.2173 346.394 73.524C346.724 72.82 347.172 72.2867 347.738 71.924C348.303 71.5507 348.938 71.364 349.642 71.364C350.228 71.364 350.735 71.4867 351.162 71.732C351.588 71.9667 351.914 72.292 352.138 72.708V71.476H355.674V80.5H352.138V79.268C351.914 79.684 351.588 80.0147 351.162 80.26C350.735 80.4947 350.228 80.612 349.642 80.612C348.938 80.612 348.303 80.4307 347.738 80.068C347.172 79.6947 346.724 79.1613 346.394 78.468C346.074 77.764 345.914 76.9373 345.914 75.988ZM352.138 75.988C352.138 75.508 352.015 75.1347 351.77 74.868C351.524 74.6013 351.21 74.468 350.826 74.468C350.442 74.468 350.127 74.6013 349.882 74.868C349.636 75.1347 349.514 75.508 349.514 75.988C349.514 76.468 349.636 76.8413 349.882 77.108C350.127 77.3747 350.442 77.508 350.826 77.508C351.21 77.508 351.524 77.3747 351.77 77.108C352.015 76.8413 352.138 76.468 352.138 75.988ZM360.821 72.708C361.045 72.292 361.365 71.9667 361.781 71.732C362.207 71.4867 362.714 71.364 363.301 71.364C364.005 71.364 364.639 71.5507 365.205 71.924C365.77 72.2867 366.213 72.82 366.533 73.524C366.863 74.2173 367.029 75.0387 367.029 75.988C367.029 76.9373 366.863 77.764 366.533 78.468C366.213 79.1613 365.77 79.6947 365.205 80.068C364.639 80.4307 364.005 80.612 363.301 80.612C362.714 80.612 362.207 80.4947 361.781 80.26C361.365 80.0147 361.045 79.684 360.821 79.268V84.82H357.269V71.476H360.821V72.708ZM363.429 75.988C363.429 75.508 363.306 75.1347 363.061 74.868C362.815 74.6013 362.501 74.468 362.117 74.468C361.733 74.468 361.418 74.6013 361.173 74.868C360.927 75.1347 360.805 75.508 360.805 75.988C360.805 76.468 360.927 76.8413 361.173 77.108C361.418 77.3747 361.733 77.508 362.117 77.508C362.501 77.508 362.815 77.3747 363.061 77.108C363.306 76.8413 363.429 76.468 363.429 75.988ZM372.432 80.612C371.525 80.612 370.709 80.4253 369.984 80.052C369.258 79.6787 368.688 79.1453 368.272 78.452C367.866 77.748 367.664 76.9267 367.664 75.988C367.664 75.0493 367.866 74.2333 368.272 73.54C368.688 72.836 369.258 72.2973 369.984 71.924C370.709 71.5507 371.525 71.364 372.432 71.364C373.338 71.364 374.154 71.5507 374.88 71.924C375.605 72.2973 376.17 72.836 376.576 73.54C376.992 74.2333 377.2 75.0493 377.2 75.988C377.2 76.9267 376.992 77.748 376.576 78.452C376.17 79.1453 375.605 79.6787 374.88 80.052C374.154 80.4253 373.338 80.612 372.432 80.612ZM372.432 77.54C372.762 77.54 373.04 77.412 373.264 77.156C373.488 76.8893 373.6 76.5 373.6 75.988C373.6 75.476 373.488 75.092 373.264 74.836C373.04 74.5693 372.762 74.436 372.432 74.436C372.101 74.436 371.824 74.5693 371.6 74.836C371.376 75.092 371.264 75.476 371.264 75.988C371.264 76.5 371.37 76.8893 371.584 77.156C371.808 77.412 372.09 77.54 372.432 77.54ZM381.868 73.14C382.23 72.6173 382.673 72.2013 383.196 71.892C383.718 71.572 384.262 71.412 384.828 71.412V75.204H383.82C383.148 75.204 382.652 75.3213 382.332 75.556C382.022 75.7907 381.868 76.2067 381.868 76.804V80.5H378.316V71.476H381.868V73.14ZM385.304 75.988C385.304 75.0387 385.464 74.2173 385.784 73.524C386.115 72.82 386.563 72.2867 387.128 71.924C387.694 71.5507 388.328 71.364 389.032 71.364C389.619 71.364 390.126 71.4867 390.552 71.732C390.979 71.9667 391.304 72.292 391.528 72.708V71.476H395.064V80.5H391.528V79.268C391.304 79.684 390.979 80.0147 390.552 80.26C390.126 80.4947 389.619 80.612 389.032 80.612C388.328 80.612 387.694 80.4307 387.128 80.068C386.563 79.6947 386.115 79.1613 385.784 78.468C385.464 77.764 385.304 76.9373 385.304 75.988ZM391.528 75.988C391.528 75.508 391.406 75.1347 391.16 74.868C390.915 74.6013 390.6 74.468 390.216 74.468C389.832 74.468 389.518 74.6013 389.272 74.868C389.027 75.1347 388.904 75.508 388.904 75.988C388.904 76.468 389.027 76.8413 389.272 77.108C389.518 77.3747 389.832 77.508 390.216 77.508C390.6 77.508 390.915 77.3747 391.16 77.108C391.406 76.8413 391.528 76.468 391.528 75.988ZM402.979 71.412C404.014 71.412 404.819 71.7587 405.395 72.452C405.982 73.1453 406.275 74.084 406.275 75.268V80.5H402.739V75.716C402.739 75.2893 402.622 74.9533 402.387 74.708C402.163 74.452 401.859 74.324 401.475 74.324C401.081 74.324 400.771 74.452 400.547 74.708C400.323 74.9533 400.211 75.2893 400.211 75.716V80.5H396.659V71.476H400.211V72.852C400.489 72.4253 400.857 72.0787 401.315 71.812C401.785 71.5453 402.339 71.412 402.979 71.412ZM419.798 73.06C419.798 73.7747 419.633 74.4253 419.302 75.012C418.972 75.588 418.481 76.0467 417.83 76.388C417.19 76.7293 416.412 76.9 415.494 76.9H414.086V80.5H410.534V69.172H415.494C416.881 69.172 417.942 69.524 418.678 70.228C419.425 70.932 419.798 71.876 419.798 73.06ZM415.094 74.1C415.83 74.1 416.198 73.7533 416.198 73.06C416.198 72.3667 415.83 72.02 415.094 72.02H414.086V74.1H415.094ZM429.661 75.908C429.661 76.1533 429.645 76.388 429.613 76.612H423.901C423.954 77.3907 424.28 77.78 424.877 77.78C425.261 77.78 425.538 77.604 425.709 77.252H429.469C429.341 77.892 429.069 78.468 428.653 78.98C428.248 79.4813 427.73 79.8813 427.101 80.18C426.482 80.468 425.8 80.612 425.053 80.612C424.157 80.612 423.357 80.4253 422.653 80.052C421.96 79.6787 421.416 79.1453 421.021 78.452C420.637 77.748 420.445 76.9267 420.445 75.988C420.445 75.0493 420.637 74.2333 421.021 73.54C421.416 72.836 421.96 72.2973 422.653 71.924C423.357 71.5507 424.157 71.364 425.053 71.364C425.949 71.364 426.744 71.5507 427.437 71.924C428.141 72.2867 428.685 72.8093 429.069 73.492C429.464 74.1747 429.661 74.98 429.661 75.908ZM426.061 75.06C426.061 74.7613 425.965 74.5373 425.773 74.388C425.581 74.228 425.341 74.148 425.053 74.148C424.424 74.148 424.056 74.452 423.949 75.06H426.061ZM442.832 71.412C443.984 71.412 444.875 71.7587 445.504 72.452C446.144 73.1453 446.464 74.084 446.464 75.268V80.5H442.928V75.716C442.928 75.332 442.811 75.0333 442.576 74.82C442.352 74.596 442.048 74.484 441.664 74.484C441.27 74.484 440.96 74.596 440.736 74.82C440.512 75.0333 440.4 75.332 440.4 75.716V80.5H436.864V75.716C436.864 75.332 436.747 75.0333 436.512 74.82C436.288 74.596 435.984 74.484 435.6 74.484C435.206 74.484 434.896 74.596 434.672 74.82C434.448 75.0333 434.336 75.332 434.336 75.716V80.5H430.784V71.476H434.336V72.692C434.592 72.308 434.939 71.9987 435.376 71.764C435.824 71.5293 436.347 71.412 436.944 71.412C437.595 71.412 438.171 71.556 438.672 71.844C439.174 72.1213 439.574 72.516 439.872 73.028C440.203 72.5587 440.624 72.1747 441.136 71.876C441.648 71.5667 442.214 71.412 442.832 71.412ZM451.555 72.708C451.779 72.292 452.099 71.9667 452.515 71.732C452.942 71.4867 453.448 71.364 454.035 71.364C454.739 71.364 455.374 71.5507 455.939 71.924C456.504 72.2867 456.947 72.82 457.267 73.524C457.598 74.2173 457.763 75.0387 457.763 75.988C457.763 76.9373 457.598 77.764 457.267 78.468C456.947 79.1613 456.504 79.6947 455.939 80.068C455.374 80.4307 454.739 80.612 454.035 80.612C453.448 80.612 452.942 80.4947 452.515 80.26C452.099 80.0147 451.779 79.684 451.555 79.268V80.5H448.003V68.66H451.555V72.708ZM454.163 75.988C454.163 75.508 454.04 75.1347 453.795 74.868C453.55 74.6013 453.235 74.468 452.851 74.468C452.467 74.468 452.152 74.6013 451.907 74.868C451.662 75.1347 451.539 75.508 451.539 75.988C451.539 76.468 451.662 76.8413 451.907 77.108C452.152 77.3747 452.467 77.508 452.851 77.508C453.235 77.508 453.55 77.3747 453.795 77.108C454.04 76.8413 454.163 76.468 454.163 75.988ZM467.614 75.908C467.614 76.1533 467.598 76.388 467.566 76.612H461.854C461.907 77.3907 462.233 77.78 462.83 77.78C463.214 77.78 463.491 77.604 463.662 77.252H467.422C467.294 77.892 467.022 78.468 466.606 78.98C466.201 79.4813 465.683 79.8813 465.054 80.18C464.435 80.468 463.753 80.612 463.006 80.612C462.11 80.612 461.31 80.4253 460.606 80.052C459.913 79.6787 459.369 79.1453 458.974 78.452C458.59 77.748 458.398 76.9267 458.398 75.988C458.398 75.0493 458.59 74.2333 458.974 73.54C459.369 72.836 459.913 72.2973 460.606 71.924C461.31 71.5507 462.11 71.364 463.006 71.364C463.902 71.364 464.697 71.5507 465.39 71.924C466.094 72.2867 466.638 72.8093 467.022 73.492C467.417 74.1747 467.614 74.98 467.614 75.908ZM464.014 75.06C464.014 74.7613 463.918 74.5373 463.726 74.388C463.534 74.228 463.294 74.148 463.006 74.148C462.377 74.148 462.009 74.452 461.902 75.06H464.014ZM472.29 68.66V80.5H468.738V68.66H472.29ZM473.414 75.988C473.414 75.0387 473.574 74.2173 473.894 73.524C474.224 72.82 474.672 72.2867 475.238 71.924C475.803 71.5507 476.438 71.364 477.142 71.364C477.728 71.364 478.235 71.4867 478.662 71.732C479.088 71.9667 479.414 72.292 479.638 72.708V71.476H483.174V80.5H479.638V79.268C479.414 79.684 479.088 80.0147 478.662 80.26C478.235 80.4947 477.728 80.612 477.142 80.612C476.438 80.612 475.803 80.4307 475.238 80.068C474.672 79.6947 474.224 79.1613 473.894 78.468C473.574 77.764 473.414 76.9373 473.414 75.988ZM479.638 75.988C479.638 75.508 479.515 75.1347 479.27 74.868C479.024 74.6013 478.71 74.468 478.326 74.468C477.942 74.468 477.627 74.6013 477.382 74.868C477.136 75.1347 477.014 75.508 477.014 75.988C477.014 76.468 477.136 76.8413 477.382 77.108C477.627 77.3747 477.942 77.508 478.326 77.508C478.71 77.508 479.024 77.3747 479.27 77.108C479.515 76.8413 479.638 76.468 479.638 75.988ZM486.529 70.756C485.91 70.756 485.414 70.5907 485.041 70.26C484.667 69.9293 484.481 69.5133 484.481 69.012C484.481 68.5 484.667 68.0787 485.041 67.748C485.414 67.4067 485.91 67.236 486.529 67.236C487.137 67.236 487.627 67.4067 488.001 67.748C488.374 68.0787 488.561 68.5 488.561 69.012C488.561 69.5133 488.374 69.9293 488.001 70.26C487.627 70.5907 487.137 70.756 486.529 70.756ZM488.321 81.124C488.321 83.588 487.083 84.82 484.609 84.82H483.425V81.796H484.113C484.347 81.796 484.513 81.748 484.609 81.652C484.715 81.556 484.769 81.4013 484.769 81.188V71.476H488.321V81.124ZM489.414 75.988C489.414 75.0387 489.574 74.2173 489.894 73.524C490.224 72.82 490.672 72.2867 491.238 71.924C491.803 71.5507 492.438 71.364 493.142 71.364C493.728 71.364 494.235 71.4867 494.662 71.732C495.088 71.9667 495.414 72.292 495.638 72.708V71.476H499.174V80.5H495.638V79.268C495.414 79.684 495.088 80.0147 494.662 80.26C494.235 80.4947 493.728 80.612 493.142 80.612C492.438 80.612 491.803 80.4307 491.238 80.068C490.672 79.6947 490.224 79.1613 489.894 78.468C489.574 77.764 489.414 76.9373 489.414 75.988ZM495.638 75.988C495.638 75.508 495.515 75.1347 495.27 74.868C495.024 74.6013 494.71 74.468 494.326 74.468C493.942 74.468 493.627 74.6013 493.382 74.868C493.136 75.1347 493.014 75.508 493.014 75.988C493.014 76.468 493.136 76.8413 493.382 77.108C493.627 77.3747 493.942 77.508 494.326 77.508C494.71 77.508 495.024 77.3747 495.27 77.108C495.515 76.8413 495.638 76.468 495.638 75.988ZM504.321 73.14C504.683 72.6173 505.126 72.2013 505.649 71.892C506.171 71.572 506.715 71.412 507.281 71.412V75.204H506.273C505.601 75.204 505.105 75.3213 504.785 75.556C504.475 75.7907 504.321 76.2067 504.321 76.804V80.5H500.769V71.476H504.321V73.14ZM507.758 75.988C507.758 75.0387 507.918 74.2173 508.238 73.524C508.568 72.82 509.016 72.2867 509.582 71.924C510.147 71.5507 510.782 71.364 511.486 71.364C512.072 71.364 512.579 71.4867 513.006 71.732C513.432 71.9667 513.758 72.292 513.982 72.708V71.476H517.518V80.5H513.982V79.268C513.758 79.684 513.432 80.0147 513.006 80.26C512.579 80.4947 512.072 80.612 511.486 80.612C510.782 80.612 510.147 80.4307 509.582 80.068C509.016 79.6947 508.568 79.1613 508.238 78.468C507.918 77.764 507.758 76.9373 507.758 75.988ZM513.982 75.988C513.982 75.508 513.859 75.1347 513.614 74.868C513.368 74.6013 513.054 74.468 512.67 74.468C512.286 74.468 511.971 74.6013 511.726 74.868C511.48 75.1347 511.358 75.508 511.358 75.988C511.358 76.468 511.48 76.8413 511.726 77.108C511.971 77.3747 512.286 77.508 512.67 77.508C513.054 77.508 513.368 77.3747 513.614 77.108C513.859 76.8413 513.982 76.468 513.982 75.988ZM525.433 71.412C526.467 71.412 527.273 71.7587 527.849 72.452C528.435 73.1453 528.729 74.084 528.729 75.268V80.5H525.193V75.716C525.193 75.2893 525.075 74.9533 524.841 74.708C524.617 74.452 524.313 74.324 523.929 74.324C523.534 74.324 523.225 74.452 523.001 74.708C522.777 74.9533 522.665 75.2893 522.665 75.716V80.5H519.113V71.476H522.665V72.852C522.942 72.4253 523.31 72.0787 523.769 71.812C524.238 71.5453 524.793 71.412 525.433 71.412Z" fill="white"/>
<path d="M-0.962858 391.97L-0.962891 0L30.0435 -2.8236e-06L30.0435 391.97L-0.962858 391.97Z" fill="#164520"/>
<path d="M30.0332 67.1798L30.0332 33.5898L61.0396 33.5898L61.0396 67.1798L30.0332 67.1798Z" fill="#1F1F1F"/>
<path d="M92.0605 67.1799L92.0605 33.5898L123.067 33.5898L123.067 67.1799L92.0605 67.1799Z" fill="#1F1F1F"/>
<path d="M29.5234 34L29.5234 0L144.028 -1.04274e-05L144.028 34L29.5234 34Z" fill="#248043"/>
<path d="M61.0527 33.59L61.0527 0L92.0591 -2.8236e-06L92.0591 33.59L61.0527 33.59Z" fill="#1F1F1F"/>
<path d="M30.0357 167.969L-0.970703 167.969L-0.970706 134.379L30.0357 134.379L30.0357 167.969Z" fill="#1F1F1F"/>
<path d="M61.0512 134.371L30.0449 134.371L30.0449 100.781L61.0512 100.781L61.0512 134.371Z" fill="#1F1F1F"/>
<path d="M30.0357 100.781L-0.970703 100.781L-0.970706 67.1913L30.0357 67.1913L30.0357 100.781Z" fill="#1F1F1F"/>
<path d="M30.0357 134.371L-0.970703 134.371L-0.970706 100.781L30.0357 100.781L30.0357 134.371Z" fill="#164520"/>
<path d="M61.0527 528.082L61.0527 561.672L30.0464 561.672L30.0464 528.082L61.0527 528.082Z" fill="#1F1F1F"/>
<path d="M30.0449 561.68L30.0449 595.27L-0.961456 595.27L-0.961459 561.68L30.0449 561.68Z" fill="#164520"/>
<path d="M92.0684 561.672L92.0684 595.262L61.062 595.262L61.062 561.672L92.0684 561.672Z" fill="#248043"/>
<path d="M30.0357 460.891L-0.970703 460.891L-0.970706 427.301L30.0357 427.301L30.0357 460.891Z" fill="#1F1F1F"/>
<path d="M61.0512 494.488L30.0449 494.488L30.0449 460.898L61.0512 460.898L61.0512 494.488Z" fill="#1F1F1F"/>
<path d="M30.0357 528.07L-0.970703 528.07L-0.970706 494.48L30.0357 494.48L30.0357 528.07Z" fill="#1F1F1F"/>
<path d="M30.0357 494.488L-0.970703 494.488L-0.970706 460.898L30.0357 460.898L30.0357 494.488Z" fill="#164520"/>
</g>
<defs>
<clipPath id="clip0_3433_25796">
<rect width="595" height="842" fill="white" transform="translate(0 595) rotate(-90)"/>
</clipPath>
</defs>
</svg>
