<svg width="112" height="75" viewBox="0 0 112 75" fill="none" xmlns="http://www.w3.org/2000/svg">
<path d="M102.811 33.8728C101.844 34.6399 100.852 35.3972 100.126 36.3903C98.8969 38.072 97.2711 39.348 95.6797 40.657C94.2325 41.8473 92.5406 42.5443 90.6533 42.7708C90.0861 42.839 89.4985 43.1366 89.1016 42.3752C88.9182 42.0235 88.4864 42.2352 88.1865 42.3717C87.3721 42.742 86.5676 43.1333 85.7751 43.5088C85.5589 43.3202 85.6435 43.117 85.6421 42.9299C85.6338 41.7672 85.2175 41.523 84.157 42.0783C83.8321 42.2484 83.5284 42.4583 83.2212 42.6592C82.5272 43.113 81.837 43.5724 80.9659 44.148C81.0742 43.7777 81.1127 43.6561 81.145 43.533C81.2705 43.0576 81.7802 42.5311 81.1554 42.1173C80.5921 41.7442 80.2397 42.3388 79.8641 42.6016C78.8184 43.3338 77.8776 44.2135 76.4378 44.913C76.8028 44.2797 77.0496 43.9002 77.2471 43.4979C77.5791 42.8216 78.4896 42.1158 77.8464 41.4023C77.252 40.7426 76.3362 41.3585 75.5845 41.5763C74.4737 41.8981 73.5191 42.5763 72.253 43.1197C73.2303 41.088 74.1761 39.3298 75.5856 37.8422C75.8572 37.5556 76.1814 37.2117 75.6914 36.8517C75.2766 36.5472 75.0357 36.8659 74.7742 37.1436C73.3185 38.6899 71.8748 40.2483 70.3811 41.7595C69.307 42.8463 68.1147 43.8097 66.8318 44.6639C66.2774 45.033 66.0288 44.924 65.9008 44.2744C65.7222 43.3681 65.3979 43.2434 64.604 43.754C63.8745 44.223 63.1865 44.7527 62.4669 45.237C62.0858 45.4937 61.674 45.9815 61.2477 45.8102C60.7653 45.6163 61.0357 45.0016 60.9928 44.5697C60.9115 43.7486 60.5196 43.5269 59.7905 43.9644C59.2226 44.3047 58.7026 44.7207 58.1614 45.1033C57.4018 45.5736 56.6422 46.0438 55.8129 46.5571C55.7293 45.7381 56.0824 45.1278 56.4034 44.5426C57.0216 43.4154 57.7267 42.334 58.3737 41.2216C59.0027 40.1402 59.7474 39.1043 60.025 37.8655C60.2045 37.0646 59.797 36.7332 59.0098 37.0163C58.603 37.1624 58.217 37.3766 57.8437 37.5956C55.961 38.6999 54.2401 40.0106 52.6562 41.4942C51.2852 42.7783 49.9092 44.0575 48.4709 45.3989C48.9409 44.3674 49.4246 43.4071 49.8219 42.4138C50.7903 39.9924 52.1109 37.7408 53.2868 35.4191C53.4898 35.0183 53.9505 34.5128 53.5103 34.0785C53.0413 33.6159 52.5654 34.1363 52.1519 34.3392C50.4962 35.1511 48.9152 36.0938 47.3876 37.1161C41.4862 41.0655 36.1406 45.667 30.9433 50.4429C30.6833 50.6819 30.4856 51.1123 30.0287 50.9918C32.3004 47.8412 34.5614 44.7012 36.8269 41.5638C39.8877 37.3252 43.341 33.3611 46.1472 28.9449C47.3722 27.0171 48.484 25.0299 49.125 22.8314C50.0211 19.7586 49.2305 17.4162 46.8004 15.81C45.5326 14.972 44.1294 14.6118 42.6154 14.5559C40.016 14.46 37.6406 15.2752 35.3146 16.2595C34.0507 16.7943 32.7957 17.3662 31.7546 18.2853C31.5362 18.4781 31.3568 18.7221 31.5443 18.9646C31.7956 19.2899 32.025 18.9623 32.2079 18.8218C33.4134 17.8948 34.8246 17.3356 36.2061 16.745C38.2232 15.8825 40.3221 15.3047 42.5649 15.3971C47.2916 15.5924 49.6794 18.9719 48.1597 23.3101C47.237 25.9434 45.7486 28.2813 44.1924 30.5826C41.615 34.3941 38.6055 37.8996 35.9279 41.6408C32.0763 47.0221 28.3069 52.4648 23.7095 57.2933C23.4755 57.5387 23.1939 57.8103 23.4983 58.1361C23.8017 58.4606 24.1231 58.2029 24.3952 58.019C24.5869 57.8896 24.7667 57.7311 24.9156 57.5561C26.3361 55.8856 27.9043 54.3521 29.4855 52.8287C35.5055 47.0288 41.7859 41.5321 48.879 36.9814C49.9531 36.2923 51.0536 35.6382 52.4386 35.082C52.2356 35.5354 52.1233 35.8008 51.9996 36.0611C51.3205 37.4886 50.4401 38.8142 49.8362 40.2832C48.6595 43.1451 47.3412 45.9456 45.7869 48.6355C45.5957 48.967 45.2282 49.3421 45.75 49.6426C46.2336 49.9211 46.4451 49.4911 46.6846 49.1649C49.1476 45.8077 52.0921 42.8895 55.3303 40.2486C56.4154 39.3635 57.5557 38.537 59.0673 37.9254C58.5687 39.1845 58.015 40.1524 57.4143 41.1028C56.1786 43.0583 54.9558 45.0233 54.3789 47.2872C54.2905 47.6345 54.1435 47.9894 54.5017 48.2864C54.891 48.6091 55.1846 48.3471 55.4835 48.1336C56.5136 47.3976 57.5423 46.6596 58.5715 45.9225C58.9606 45.6767 59.3495 45.431 59.7481 45.1791C60.4683 47.2505 61.1834 47.4444 62.9894 46.0932C63.4425 45.7543 63.8906 45.4084 64.3378 45.0619C64.6426 44.8257 64.8386 44.7224 65.088 45.194C65.6459 46.2493 66.1499 46.3694 67.1679 45.6984C68.4827 44.832 69.5857 43.7168 70.7329 42.6568C71.0185 42.3932 71.2968 42.1222 71.5785 41.8545C71.3461 42.725 71.0185 43.4746 70.6785 44.2187C70.505 44.5984 70.5436 44.9455 70.897 45.1751C71.228 45.3902 71.5246 45.2208 71.8012 44.9856C72.2316 44.6197 72.6709 44.2607 73.131 43.9314C74.1767 43.1833 75.3041 42.5983 76.7058 42.2289C76.2399 43.1537 75.8257 43.8998 75.4865 44.6772C75.275 45.1619 75.1208 45.764 75.5801 46.1555C76.0986 46.5974 76.5902 46.1468 77.0231 45.8582C77.9117 45.2657 78.7809 44.6454 79.7557 43.9688C79.7333 44.3384 79.7052 44.5322 79.7135 44.7246C79.729 45.0855 79.7329 45.4565 80.1524 45.6419C80.5615 45.823 80.8711 45.6141 81.1674 45.3948C81.4885 45.157 81.7766 44.876 82.103 44.6458C82.8454 44.1227 83.4991 43.4616 84.405 43.1314C84.6464 44.913 85.2102 45.1588 86.7128 44.2015C86.8817 44.0938 87.0464 43.9788 87.2192 43.8775C87.7532 43.5647 88.2624 43.1386 88.82 43.9007C89.011 44.1617 89.4292 44.1395 89.7729 44.0914C92.4325 43.7196 94.8583 42.8551 96.7893 40.9395C97.1824 40.5493 97.5687 40.1445 98.2069 39.8189C98.0861 40.6113 97.9782 41.2776 97.8845 41.9457C97.8006 42.5428 97.8528 43.1284 98.1502 43.6671C98.2897 43.9197 98.533 44.052 98.8292 43.9401C99.1054 43.8355 99.0762 43.616 99.0277 43.367C98.5375 40.8602 99.3385 38.7216 101.063 36.8828C101.811 36.0848 102.634 35.3527 103.436 34.6048C103.679 34.3786 104.054 34.1991 103.708 33.8262C103.426 33.5219 103.098 33.6445 102.811 33.8728Z" fill="black"/>
<path d="M12.5395 40.3794C11.4037 41.5278 10.3312 42.7569 8.71954 43.3604C8.53805 41.8589 10.1854 39.9458 12.2906 39.1721C12.6242 39.3234 11.9369 39.8005 12.5306 39.9135C12.8149 39.9677 12.6849 40.2324 12.5395 40.3794ZM20.5578 41.0695C20.3619 40.6103 19.9261 40.914 19.5879 41.0229C19.2759 41.1239 18.9351 41.3281 18.6615 40.993C18.3642 40.6288 18.6271 40.3035 18.8359 40.0141C19.2805 39.3981 19.757 38.8041 20.2071 38.1917C20.3934 37.9381 20.5036 37.6263 20.2157 37.3954C19.8918 37.1357 19.5766 37.28 19.352 37.5784C18.9748 38.0797 18.6138 38.5924 18.249 39.1025C17.1817 40.5946 15.677 41.49 13.9341 42.1319C14.1323 41.3716 14.4805 40.7148 14.7453 40.0274C14.932 39.5429 15.4714 38.9508 14.8675 38.5166C14.2315 38.0593 14.0478 38.9895 13.4782 39.1683C13.284 38.3443 12.8763 37.8643 11.9731 38.1059C10.3016 38.5534 7.8432 41.3374 7.65808 42.9959C7.60074 43.5089 7.66533 44.0034 8.14675 44.3093C8.61031 44.6037 9.04054 44.3851 9.46434 44.1486C10.7571 43.4266 11.8661 42.4884 12.9302 41.2399C12.8874 42.023 12.6126 42.7127 13.2717 43.106C13.9426 43.5063 14.581 43.1316 15.161 42.8048C15.7998 42.4446 16.3962 42.0138 17.0228 41.6324C17.2213 41.5115 17.4289 41.2228 17.6941 41.5858C18.321 42.4443 19.1113 42.1216 19.8688 41.8242C20.2108 41.69 20.7776 41.5848 20.5578 41.0695Z" fill="black"/>
</svg>
